<?xml version="1.0" encoding="UTF-8"?>
<svg version="1.1" xmlns="http://www.w3.org/2000/svg" width="600" height="400">
<path d="M0 0 C0.73347656 0.144375 1.46695313 0.28875 2.22265625 0.4375 C2.58617187 1.4996875 2.9496875 2.561875 3.32421875 3.65625 C7.72695756 16.18450104 12.19812871 24.70989606 24.22265625 31.4375 C26.86265625 32.4275 29.50265625 33.4175 32.22265625 34.4375 C32.22265625 56.5475 32.22265625 78.6575 32.22265625 101.4375 C24.30265625 104.0775 16.38265625 106.7175 8.22265625 109.4375 C-10.04166278 118.40054545 -23.48151241 133.41203629 -30.77734375 152.4375 C-36.13041896 168.28680111 -36.01224447 184.62963888 -32.43359375 200.81640625 C-31.7757145 204.44648998 -31.73124756 207.75831085 -31.77734375 211.4375 C-32.48938965 211.84363525 -33.20143555 212.24977051 -33.93505859 212.66821289 C-36.71078445 214.25183707 -39.48602173 215.83631486 -42.26119995 217.42089844 C-44.1553734 218.50172874 -46.05041914 219.58101739 -47.94555664 220.66015625 C-54.40671689 224.34319965 -60.84786023 228.05503107 -67.25 231.83984375 C-68.43360319 232.53598666 -69.61735687 233.23187377 -70.80126953 233.92749023 C-73.04315835 235.24757825 -75.28000888 236.57626774 -77.51123047 237.91430664 C-78.52588379 238.50977295 -79.54053711 239.10523926 -80.5859375 239.71875 C-81.47079834 240.24533203 -82.35565918 240.77191406 -83.26733398 241.31445312 C-86.02611853 242.54880862 -87.78953432 242.75458665 -90.77734375 242.4375 C-92.62890625 241.265625 -92.62890625 241.265625 -94.40234375 239.6875 C-104.81169491 231.57855794 -116.23726969 231.75575258 -128.91064453 231.5793457 C-130.77734375 231.4375 -130.77734375 231.4375 -131.77734375 230.4375 C-132.21819052 225.59255904 -131.28933505 222.86215873 -128.83984375 218.7109375 C-128.20030762 217.61104492 -127.56077148 216.51115234 -126.90185547 215.37792969 C-126.19381626 214.18937486 -125.48564199 213.00090048 -124.77734375 211.8125 C-124.04828332 210.56752638 -123.32060447 209.32174278 -122.59423828 208.07519531 C-121.08272443 205.4835326 -119.56530734 202.895463 -118.04394531 200.30957031 C-114.8581512 194.88248672 -111.75522715 189.40854026 -108.64697266 183.93682861 C-102.85594936 173.75172069 -96.97967123 163.61757234 -91.06152344 153.50585938 C-86.63062808 145.92505027 -82.25449596 138.31370249 -77.90234375 130.6875 C-77.5694635 130.1042395 -77.23658325 129.520979 -76.89361572 128.92004395 C-74.5199599 124.76008771 -72.14841675 120.59892877 -69.77734375 116.4375 C-67.07044996 111.68667803 -64.36255875 106.93642823 -61.65234375 102.1875 C-61.32029938 101.60557892 -60.988255 101.02365784 -60.64614868 100.42410278 C-55.43957839 91.30337103 -50.16286348 82.22517948 -44.85498047 73.16308594 C-40.93377799 66.45538384 -37.08611001 59.70960183 -33.27734375 52.9375 C-27.64832066 42.93120698 -21.90540687 32.99597355 -16.08203125 23.1015625 C-13.95254348 19.47687626 -11.87481698 15.83127516 -9.84765625 12.1484375 C-9.17512817 10.94646729 -9.17512817 10.94646729 -8.48901367 9.72021484 C-7.66391877 8.2420318 -6.85315823 6.75571783 -6.05981445 5.26025391 C-3.39370738 0.53459244 -3.39370738 0.53459244 0 0 Z " fill="#FFFFFF" transform="translate(256.77734375,43.5625)"/>
<path d="M0 0 C0.99 0 1.98 0 3 0 C3.57161865 0.99290039 3.57161865 0.99290039 4.15478516 2.00585938 C13.38512076 18.03415652 22.66656807 34.03145186 32 50 C34.31332038 53.95785474 36.62595749 57.91610663 38.9375 61.875 C39.51395264 62.86218018 40.09040527 63.84936035 40.68432617 64.86645508 C44.9420168 72.16611392 49.16189825 79.48704158 53.375 86.8125 C58.51662348 95.74870174 63.72979462 104.63905613 69 113.5 C77.42297534 127.66438366 85.64825698 141.93880244 93.85449219 156.22949219 C100.59747117 167.96674493 107.37367557 179.68165234 114.28106689 191.32290649 C115.30031097 193.04194224 116.31691989 194.76253952 117.33349609 196.4831543 C120.26180815 201.4312807 123.20808802 206.36095277 126.265625 211.23046875 C126.74475342 212.00575928 127.22388184 212.7810498 127.7175293 213.57983398 C128.57802386 214.96827765 129.45322312 216.34778187 130.34692383 217.71508789 C132.44866628 221.13503445 133.00732089 222.88601931 132.74609375 226.953125 C132.49988281 227.95859375 132.25367188 228.9640625 132 230 C130.68386719 230.02578125 129.36773437 230.0515625 128.01171875 230.078125 C115.46480447 230.43514131 104.60591502 230.87100252 95.046875 239.92578125 C92.58822426 241.21610368 90.86602279 241.24887415 88.15576172 240.72436523 C83.14541355 239.04082016 78.6965617 236.08279426 74.1875 233.375 C72.4718674 232.36426166 70.756223 231.35354278 69.03991699 230.34394836 C67.248083 229.28814326 65.45915439 228.22753362 63.67041016 227.16650391 C58.18184685 223.91806567 52.64970063 220.74506942 47.12051392 217.56646729 C44.33648399 215.96517672 41.55507348 214.35935066 38.7734375 212.75390625 C37.84966309 212.22095947 36.92588867 211.6880127 35.97412109 211.13891602 C35.32266113 210.76307373 34.67120117 210.38723145 34 210 C33.84337435 204.92924451 34.40665822 200.50784686 35.5 195.5625 C39.72238327 174.72866089 36.50285727 153.03436473 25 135 C22.49179078 131.51609229 19.82179511 128.23365475 17 125 C16.48050781 124.38511719 15.96101563 123.77023438 15.42578125 123.13671875 C3.42316424 109.98523663 -13.5067307 104.94798079 -30 100 C-30 77.89 -30 55.78 -30 33 C-26.7 31.68 -23.4 30.36 -20 29 C-10.01732206 22.74220189 -5.01106909 14.58125755 -1.7265625 3.37109375 C-1 1 -1 1 0 0 Z " fill="#FFFFFF" transform="translate(341,45)"/>
<path d="M0 0 C1.5 1.43359375 1.5 1.43359375 3 3.4375 C10.39236174 12.34301041 20.36563878 18.63207885 31 23 C32.00160156 23.41378906 33.00320313 23.82757813 34.03515625 24.25390625 C54.21862769 31.02894286 79.25610372 28.83050281 98.25 19.8125 C106.40495156 15.50439776 113.65523773 10.21336088 119.3125 2.875 C120.6428125 1.451875 120.6428125 1.451875 122 0 C126.63286297 0.20874936 129.90707172 1.79889651 133.8671875 4.10546875 C134.98947754 4.75314209 136.11176758 5.40081543 137.26806641 6.06811523 C138.47049189 6.77438229 139.67280059 7.48084819 140.875 8.1875 C142.1146029 8.90713936 143.35468058 9.62596147 144.59521484 10.34399414 C147.77618166 12.18814783 150.95066912 14.04314618 154.12329102 15.90161133 C157.11571294 17.65299759 160.11270856 19.39651477 163.109375 21.140625 C168.08273588 24.03683347 173.05087691 26.94178028 178.01416016 29.85522461 C179.32127574 30.60873641 180.6505316 31.3252658 182 32 C182.37800049 34.97000385 182.65391024 37.89281983 182.875 40.875 C183.78204523 50.97695696 185.42707519 59.0185913 192 67 C192.4375 69.625 192.4375 69.625 192 72 C190.42270969 74.04774523 189.53854581 74.90089687 186.96899027 75.37374616 C186.18443305 75.37314907 185.39987583 75.37255198 184.59154415 75.3719368 C183.23113535 75.38182156 183.23113535 75.38182156 181.84324354 75.39190602 C180.84559069 75.38384962 179.84793785 75.37579321 178.8200531 75.36749268 C177.23186479 75.37239594 177.23186479 75.37239594 175.61159188 75.37739825 C172.04617486 75.38470994 168.48116372 75.37049197 164.91577148 75.35644531 C162.36688161 75.35723574 159.81799185 75.35933162 157.269104 75.36264038 C151.05439547 75.36725184 144.83983892 75.35794803 138.6251524 75.34235242 C131.39292229 75.32483597 124.16071625 75.32339365 116.92846823 75.32273683 C104.02788771 75.32104796 91.12736338 75.30522268 78.22680664 75.28125 C65.6988071 75.25798642 53.17084322 75.24382471 40.64282227 75.24023438 C39.87110939 75.24001161 39.09939651 75.23978884 38.30429839 75.23955932 C36.74974602 75.23911673 35.19519365 75.23867471 33.64064128 75.23823325 C32.4904617 75.2379039 32.4904617 75.2379039 31.31704617 75.2375679 C30.1698345 75.23724392 30.1698345 75.23724392 28.99944684 75.2369134 C17.07369567 75.23321515 5.14795028 75.22185568 -6.77779456 75.2094375 C-11.10534421 75.20499806 -15.43289331 75.20156152 -19.76044435 75.19881538 C-27.26387675 75.19397506 -34.76727234 75.18388025 -42.27069092 75.16798782 C-44.7677021 75.16345288 -47.26471702 75.16062335 -49.7617321 75.15958023 C-53.15686179 75.15784316 -56.55192135 75.14998313 -59.94703674 75.14044189 C-61.44686209 75.14174162 -61.44686209 75.14174162 -62.97698694 75.1430676 C-64.33348413 75.13730588 -64.33348413 75.13730588 -65.71738529 75.13142776 C-66.50178016 75.13018127 -67.28617502 75.12893477 -68.09433943 75.1276505 C-70 75 -70 75 -72 74 C-71.29698099 68.66475983 -68.69242457 65.26209322 -65.69140625 60.9140625 C-62.95356545 56.19713585 -61.80564699 52.06776973 -62.24609375 46.65234375 C-62.56467269 41.40382494 -62.53796665 36.72560049 -60 32 C-53.80002683 26.30243844 -45.7324869 23.00794705 -38.16503906 19.50634766 C-33.88126462 17.46755652 -29.85704431 15.09608054 -25.8125 12.625 C-24.48283874 11.83673751 -23.15213739 11.05022635 -21.8203125 10.265625 C-19.87672743 9.11438637 -17.93456834 7.96092585 -15.99511719 6.80273438 C-14.0638798 5.65208977 -12.12645914 4.5125702 -10.1875 3.375 C-9.08792969 2.72273438 -7.98835938 2.07046875 -6.85546875 1.3984375 C-4 0 -4 0 0 0 Z " fill="#FFFFFF" transform="translate(239,274)"/>
<path d="M0 0 C9.87167157 8.09247495 18.12364805 21.53905195 19.640625 34.33984375 C20.81039676 50.89661333 17.11211892 64.89823496 6.45703125 78.03125 C-3.49580521 88.73586064 -16.14960197 95.44815726 -30.796875 96.61328125 C-45.79097883 97.04074474 -58.23954638 92.86860025 -69.609375 83.02734375 C-79.89245965 73.23238021 -87.61814414 61.32464213 -88.59765625 46.80859375 C-88.89699595 30.80179733 -84.48299462 16.11838875 -73.3203125 4.17578125 C-51.74353946 -16.02557996 -23.618347 -16.61886999 0 0 Z " fill="#FFFFFF" transform="translate(334.359375,181.66015625)"/>
</svg>
